PathFileType	4	(X/Y/Z)	C:\Users\86182\Documents\cortex\Trimmed_M3_L3.trc
DataRate	CameraRate	NumFrames	NumMarkers	Units	OrigDataRate	OrigDataStartFrame	OrigNumFrames
100.00	100.00	       72	2	mm	100.00	1	       901
Frame#	Time	gripper			box			
		X1	Y1	Z1	X2	Y2	Z2	

1	0.000	274.64615	148.70857	192.98209	277.34402	147.07788	57.66010	
2	0.010	274.62711	148.70404	192.98456	277.36890	147.04758	57.64361	
3	0.020	274.62610	148.72795	193.02226	277.34091	147.08168	57.66216	
4	0.030	274.63202	148.70763	192.98187	277.36032	147.06058	57.64730	
5	0.040	274.64490	148.71486	192.97276	277.36890	147.04758	57.64361	
6	0.050	274.64240	148.71306	192.97411	277.35342	147.06642	57.65387	
7	0.060	274.62521	148.70049	192.98351	277.35654	147.06265	57.65181	
8	0.070	274.65228	148.72026	192.96873	277.36890	147.04758	57.64361	
9	0.080	274.62955	148.71660	192.99387	277.36395	147.06937	57.63519	
10	0.090	274.64240	148.71306	192.97411	277.36890	147.04758	57.64361	
11	0.100	274.63992	148.71124	192.97545	277.36444	147.05356	57.64075	
12	0.110	274.64490	148.71486	192.97276	277.36227	147.07666	57.63244	
13	0.120	274.66766	148.71494	192.97826	277.35654	147.06265	57.65181	
14	0.130	274.62836	148.69939	192.98270	277.36270	147.05510	57.64769	
15	0.140	274.62521	148.70049	192.98351	277.34091	147.08168	57.66216	
16	0.150	274.62759	148.70226	192.98218	277.36890	147.04758	57.64361	
17	0.160	274.62521	148.70049	192.98351	277.35004	147.08105	57.64831	
18	0.170	274.64954	148.71756	192.98659	277.36581	147.05135	57.64567	
19	0.180	274.65289	148.69334	192.97568	277.36890	147.04758	57.64361	
20	0.190	274.63501	148.70766	192.97813	277.36890	147.04758	57.64361	
21	0.200	274.62521	148.70049	192.98351	277.36890	147.04758	57.64361	
22	0.210	274.62173	148.71303	193.00029	277.34717	147.07405	57.65802	
23	0.220	274.63055	148.71300	192.98907	277.36890	147.04758	57.64361	
24	0.230	274.63992	148.71124	192.97545	277.36581	147.05135	57.64567	
25	0.240	274.67102	148.72710	192.96033	277.36890	147.04758	57.64361	
26	0.250	274.63501	148.70766	192.97813	277.34717	147.07405	57.65802	
27	0.260	274.64490	148.71486	192.97276	277.33459	147.08939	57.66637	
28	0.270	274.62469	148.70227	192.98590	277.35342	147.06642	57.65387	
29	0.280	274.62704	148.71443	193.00352	277.35672	147.06007	57.65072	
30	0.290	274.63010	148.70406	192.98082	277.36270	147.05510	57.64769	
31	0.300	274.62521	148.70049	192.98351	277.35342	147.06642	57.65387	
32	0.310	274.62122	148.71487	193.00273	277.35031	147.07022	57.65593	
33	0.320	274.63782	148.69604	192.98027	277.35400	147.03957	57.64208	
34	0.330	274.63687	148.71077	192.98746	277.35654	147.06265	57.65181	
35	0.340	274.62521	148.70049	192.98351	277.33771	147.08556	57.66426	
36	0.350	274.64490	148.71486	192.97276	277.33771	147.08556	57.66426	
37	0.360	274.63815	148.70654	192.97733	277.35031	147.07022	57.65593	
38	0.370	274.62323	148.70764	192.99310	277.34784	147.07579	57.65558	
39	0.380	274.64731	148.71664	192.97141	277.38586	147.03789	57.64024	
40	0.390	274.62521	148.70049	192.98351	277.36270	147.05510	57.64769	
41	0.400	274.65363	148.69048	192.97620	277.33459	147.08939	57.66637	
42	0.410	274.65186	148.70973	192.97168	277.35175	147.07375	57.65107	
43	0.420	274.62469	148.70227	192.98590	277.32535	147.09439	57.66092	
44	0.430	274.62521	148.70049	192.98351	277.34091	147.08168	57.66216	
45	0.440	274.62323	148.70764	192.99310	277.32822	147.09714	57.67059	
46	0.450	274.62759	148.70226	192.98218	277.34402	147.07788	57.66010	
47	0.460	274.62521	148.70049	192.98351	277.30478	147.10446	57.67757	
48	0.470	274.62955	148.71660	192.99387	277.32504	147.08287	57.65540	
49	0.480	274.62521	148.70049	192.98351	277.33771	147.08556	57.66426	
50	0.490	274.62521	148.70049	192.98351	277.31219	147.11665	57.68120	
51	0.500	274.63254	148.70584	192.97949	277.34427	147.07529	57.65900	
52	0.510	274.62421	148.70407	192.98830	277.31543	147.11273	57.67907	
53	0.520	274.64981	148.71846	192.97008	277.36597	147.04881	57.64459	
54	0.530	274.64142	148.72740	192.98955	277.29465	147.11998	57.67650	
55	0.540	274.64120	148.70499	192.98477	277.33142	147.09326	57.66849	
56	0.550	274.62521	148.70049	192.98351	277.32184	147.10492	57.67483	
57	0.560	274.63254	148.70584	192.97949	277.32822	147.09714	57.67059	
58	0.570	274.65228	148.73103	192.97935	277.30573	147.12457	57.68551	
59	0.580	274.64191	148.72562	192.98714	277.33459	147.08939	57.66637	
60	0.590	274.64883	148.73134	192.99684	277.33142	147.09326	57.66849	
61	0.600	274.62271	148.70946	192.99550	277.34091	147.08168	57.66216	
62	0.610	274.64096	148.69495	192.97946	277.32822	147.09714	57.67059	
63	0.620	274.62521	148.70049	192.98351	277.29007	147.13893	57.69397	
64	0.630	274.63647	148.71301	192.98160	277.31866	147.10880	57.67693	
65	0.640	274.63434	148.70859	192.99706	277.34933	147.07933	57.65073	
66	0.650	274.63254	148.70584	192.97949	277.31866	147.10880	57.67693	
67	0.660	274.63248	148.72743	193.00087	277.32507	147.10100	57.67268	
68	0.670	274.62906	148.71838	192.99628	277.33142	147.09326	57.66849	
69	0.680	274.63885	148.70361	192.97786	277.36340	147.05682	57.64526	
70	0.690	274.62360	148.71663	193.00140	277.33142	147.09326	57.66849	
71	0.700	274.63693	148.73286	193.00061	277.35938	147.06966	57.64211	
72	0.710	274.64578	148.69807	192.98502	277.35031	147.07022	57.65593	
